<svg
  version="1.1"
  baseProfile="full"
  width="100%" height="450px"
  xmlns="http://www.w3.org/2000/svg"
  viewBox="0 0 1400 800"
>
  <rect x="1300" y="400" rx="40" ry="40" width="300" height="300" stroke="#4954e6" fill="#4954e6">
    <animateTransform attributeType="XML" attributeName="transform" begin="0s" dur="35s" type="rotate" from="0 1450 550" to="360 1450 550" repeatCount="indefinite" />
  </rect>

  <path d="M 70 315 A 105 105 0 1 1 280 315 Q280 329 266 329 L 175 329 L 84 329 Q70 329 70 315" stroke="rgb(253, 214, 99)" fill="rgb(253, 214, 99)">
    <animateMotion path="M 560 0 L 560 -70 L 560 0" dur="20s" begin="0s" repeatCount="indefinite" />
    <animateTransform attributeType="XML" attributeName="transform" begin="0s" dur="30s" type="rotate" values="0 147 441 ; -30 147 441 ; 0 147 441" keyTimes="0 ; 0.5 ; 1" repeatCount="indefinite" />
  </path>
  
  <circle cx="100" cy="310" r="15" stroke="#4954e6" fill="#4954e6">
    <animateMotion path="M 0 0 L 40 20 Z" dur="5s" repeatCount="indefinite" />
  </circle>

  <!-- 三角形 -->
<path d="M 58.5 504 L 153 504 Q157.5 502.8 153 495 L 110.7 411.7 Q108 409 105.3 411.7 L 58.5 495 Q54 502.8 58.5 504" stroke="rgb(238, 103, 92)" fill="rgb(238, 103, 92)">
  <animateTransform attributeType="XML" attributeName="transform" begin="0s" dur="35s" type="rotate" from="0 99 460" to="360 99 460" repeatCount="indefinite" />
</path>

  <circle cx="960" cy="496" r="24" stroke="rgb(241, 243, 244)" fill="rgb(241, 243, 244)">
    <animateMotion path="M 0 0 L -16 32 Z" dur="9s" repeatCount="indefinite" />
  </circle>

  <path d="M 80 288 A 32 32 0 1 1 144 288 L 144 344 A 32 32 0 1 1 80 344 Z" stroke="rgb(241, 243, 244)" fill="rgb(241, 243, 244)">
    <animateMotion path="M 112 312 L 144 288 L 112 312" dur="20s" begin="0s" repeatCount="indefinite" />
    <animateTransform attributeType="XML" attributeName="transform" begin="0s" dur="30s" type="rotate" values="0 112 312; -60 112 312; 0 112 312" keyTimes="0 ; 0.5 ; 1" repeatCount="indefinite" />
  </path>

<rect x="320" y="496" rx="32" ry="32" width="80" height="80" stroke="rgb(129, 201, 149)" fill="rgb(129, 201, 149)">
  <animateTransform attributeType="XML" attributeName="transform" begin="0s" dur="35s" type="rotate" from="-30 440 600" to="330 440 600" repeatCount="indefinite" />
</rect>
</svg>
